<?xml version="1.0" encoding="utf-8"?>
<!-- Generator: Adobe Illustrator 15.0.0, SVG Export Plug-In  -->
<!DOCTYPE svg PUBLIC "-//W3C//DTD SVG 1.1//EN" "http://www.w3.org/Graphics/SVG/1.1/DTD/svg11.dtd" [
	<!ENTITY ns_flows "http://ns.adobe.com/Flows/1.0/">
]>
<svg version="1.1"
	 xmlns="http://www.w3.org/2000/svg" xmlns:xlink="http://www.w3.org/1999/xlink" xmlns:a="http://ns.adobe.com/AdobeSVGViewerExtensions/3.0/"
	 x="0px" y="0px" width="556px" height="92px" viewBox="82 172 556 92" enable-background="new 82 172 556 92" xml:space="preserve"
	>
<defs>
</defs>
<g>
	<defs>
		<rect id="SVGID_1_" width="720" height="437.019"/>
	</defs>
	<clipPath id="SVGID_2_">
		<use xlink:href="#SVGID_1_"  overflow="visible"/>
	</clipPath>
	<g clip-path="url(#SVGID_2_)">
		<defs>
			<rect id="SVGID_3_" width="720" height="437.019"/>
		</defs>
		<clipPath id="SVGID_4_">
			<use xlink:href="#SVGID_3_"  overflow="visible"/>
		</clipPath>
		<path clip-path="url(#SVGID_4_)" fill="#414042" d="M104.678,243.013v-56.378h-20.32v-4.98c0-1.993,0.697-3.686,2.091-5.08
			c1.395-1.395,3.088-2.092,5.081-2.092h47.412v12.152h-20.121v56.378H104.678z"/>
		<path clip-path="url(#SVGID_4_)" fill="#414042" d="M171.451,226.677h9.961c-1.463,5.578-4.252,9.83-8.367,12.75
			c-4.119,3.057-9.297,4.582-15.539,4.582c-7.57,0-13.481-2.456-17.731-7.371c-4.251-4.781-6.375-11.62-6.375-20.52
			c0-8.497,2.059-15.139,6.176-19.92c4.25-4.913,10.16-7.372,17.731-7.372c7.968,0,14.144,2.391,18.527,7.172
			c4.248,4.915,6.375,11.754,6.375,20.519v1.394v0.797c0,0.667-0.068,1.13-0.199,1.395h-34.465c0.131,4.118,1.127,7.172,2.988,9.164
			c1.725,2.126,4.315,3.188,7.77,3.188c2.258,0,4.183-0.464,5.777-1.395c0.399-0.131,0.762-0.364,1.096-0.697l1.096-1.096
			c0.13-0.399,0.628-0.928,1.494-1.594C168.627,227.01,169.857,226.677,171.451,226.677 M147.545,211.138h20.32
			c-0.267-3.585-1.195-6.24-2.789-7.968c-1.726-1.858-4.183-2.789-7.371-2.789c-2.922,0-5.312,0.931-7.172,2.789
			C148.672,205.032,147.676,207.687,147.545,211.138"/>
		<path clip-path="url(#SVGID_4_)" fill="#414042" d="M230.617,243.013h-13.744v-31.078v-2.789c0-3.187-0.967-5.509-2.889-6.972
			c-1.928-1.46-4.084-2.191-6.474-2.191c-2.391,0-4.518,0.731-6.375,2.191c-1.862,1.463-2.789,3.785-2.789,6.972v33.867H184.4
			v-31.078c0-9.029,2.356-15.071,7.072-18.128c4.713-3.054,9.926-4.713,15.639-4.981c3.053,0,6.041,0.333,8.965,0.997
			c2.918,0.666,5.576,1.992,7.967,3.984c1.992-1.725,4.349-2.954,7.072-3.686c2.721-0.728,5.545-1.161,8.467-1.295
			c5.844,0,11.222,1.529,16.137,4.583c4.912,3.056,7.371,9.232,7.371,18.526v31.078h-6.973c-1.992,0-3.619-0.629-4.881-1.893
			c-1.264-1.261-1.892-2.889-1.892-4.881v-27.094c0-3.187-0.965-5.509-2.889-6.972c-1.926-1.46-4.084-2.191-6.475-2.191
			c-2.39,0-4.551,0.731-6.474,2.191c-1.926,1.463-2.889,3.785-2.889,6.972v2.789V243.013z"/>
		<path clip-path="url(#SVGID_4_)" fill="#414042" d="M280.422,255.763c0,1.858-0.666,3.452-1.992,4.781
			c-1.328,1.326-2.922,1.992-4.781,1.992h-6.774v-49.605c0-9.294,2.721-15.638,8.168-19.025c5.445-3.386,11.356-5.08,17.731-5.08
			c3.318,0,6.673,0.632,10.06,1.893c3.387,1.264,6.076,3.088,8.069,5.478c3.984,5.18,5.976,11.823,5.976,19.921
			c0,8.369-1.992,15.141-5.976,20.321c-3.985,5.049-9.1,7.57-15.34,7.57c-3.321,0-6.244-0.598-8.766-1.793
			c-2.658-1.326-4.781-3.387-6.375-6.176V255.763z M303.133,216.716c0-5.18-0.996-9.163-2.988-11.952
			c-1.992-2.789-4.85-4.184-8.567-4.184c-3.586,0-6.375,1.395-8.367,4.184c-1.861,2.524-2.789,6.509-2.789,11.952
			c0,5.049,0.996,8.834,2.988,11.355c1.993,2.79,4.848,4.184,8.567,4.184c3.453,0,6.176-1.394,8.168-4.184
			C302.137,225.283,303.133,221.498,303.133,216.716"/>
		<path clip-path="url(#SVGID_4_)" fill="#414042" d="M319.867,174.483h7.172c1.857,0,3.451,0.632,4.781,1.893
			c1.326,1.263,1.992,2.823,1.992,4.681v61.956h-13.945V174.483z"/>
		<path clip-path="url(#SVGID_4_)" fill="#414042" d="M370.07,240.822c-2.789,1.463-5.748,2.356-8.865,2.689
			c-3.123,0.33-5.877,0.498-8.267,0.498c-4.782,0-8.965-1.296-12.551-3.885c-3.586-2.59-5.379-6.873-5.379-12.85
			c0-5.578,1.625-9.562,4.881-11.953c3.252-2.391,7.402-3.984,12.451-4.781c0.662,0,1.459-0.1,2.391-0.299
			c0.927-0.199,1.992-0.363,3.187-0.498c5.842-0.796,8.766-2.521,8.766-5.179c0-1.992-1.031-3.287-3.088-3.885
			c-2.061-0.597-3.953-0.896-5.678-0.896c-1.861,0-3.521,0.267-4.98,0.797c-1.463,0.532-2.526,1.528-3.188,2.988h-13.347
			c0.529-4.115,2.39-7.502,5.578-10.16c3.586-3.054,8.697-4.582,15.339-4.582c7.436,0,13.014,1.263,16.733,3.785
			c3.852,2.658,5.777,6.375,5.777,11.156v18.128c0,5.313-0.965,9.463-2.889,12.451C375.016,237.335,372.725,239.496,370.07,240.822
			 M366.883,216.318c-1.863,0.931-4.453,1.793-7.77,2.59l-4.582,0.996c-2.39,0.666-4.119,1.528-5.179,2.59
			c-0.932,1.463-1.395,2.923-1.395,4.383c0,1.992,0.598,3.586,1.793,4.781c1.195,1.064,2.92,1.594,5.18,1.594
			c3.717,0,6.639-1.062,8.765-3.188c2.122-2.123,3.188-5.046,3.188-8.766V216.318z"/>
		<path clip-path="url(#SVGID_4_)" fill="#414042" d="M405.33,243.013c-4.383,0.265-9.133,0.199-14.244-0.199
			c-5.113-0.398-7.67-3.651-7.67-9.762v-58.569h7.172c1.725,0,3.254,0.666,4.582,1.992c1.326,1.329,1.992,2.923,1.992,4.781v8.965
			h8.168v2.789c0,1.992-0.666,3.62-1.992,4.881c-1.328,1.264-2.922,1.893-4.781,1.893h-1.395v29.483c0,2.26,1.326,3.387,3.984,3.387
			h4.184V243.013z"/>
		<path clip-path="url(#SVGID_4_)" fill="#414042" d="M443.381,226.677h9.961c-1.463,5.578-4.252,9.83-8.367,12.75
			c-4.119,3.057-9.297,4.582-15.539,4.582c-7.57,0-13.48-2.456-17.73-7.371c-4.252-4.781-6.375-11.62-6.375-20.52
			c0-8.497,2.059-15.139,6.176-19.92c4.25-4.913,10.16-7.372,17.73-7.372c7.969,0,14.145,2.391,18.527,7.172
			c4.248,4.915,6.375,11.754,6.375,20.519v1.394v0.797c0,0.667-0.068,1.13-0.199,1.395h-34.465c0.131,4.118,1.127,7.172,2.988,9.164
			c1.725,2.126,4.314,3.188,7.77,3.188c2.258,0,4.184-0.464,5.777-1.395c0.398-0.131,0.762-0.364,1.096-0.697l1.096-1.096
			c0.131-0.399,0.629-0.928,1.494-1.594C440.557,227.01,441.786,226.677,443.381,226.677 M419.475,211.138h20.32
			c-0.268-3.585-1.195-6.24-2.789-7.968c-1.727-1.858-4.184-2.789-7.371-2.789c-2.922,0-5.313,0.931-7.172,2.789
			C420.602,205.032,419.605,207.687,419.475,211.138"/>
		<path clip-path="url(#SVGID_4_)" fill="#DC2027" d="M460.932,243.013v-61.358c0-1.993,0.697-3.686,2.092-5.08
			c1.395-1.395,3.088-2.092,5.08-2.092h6.973v55.78h33.467v12.75H460.932z"/>
		<path clip-path="url(#SVGID_4_)" fill="#DC2027" d="M540.218,174.483h11.157l24.902,68.53h-14.941l-4.582-14.145h-26.695
			l-4.383,14.145h-14.941l22.711-63.948C534.641,176.011,536.898,174.483,540.218,174.483 M543.406,188.229l-9.563,29.085h19.126
			L543.406,188.229z"/>
		<path clip-path="url(#SVGID_4_)" fill="#DC2027" d="M579.465,243.013v-61.358c0-1.992,0.697-3.685,2.092-5.08
			c1.395-1.394,3.088-2.092,5.08-2.092h25.102c7.037,0,12.416,1.463,16.135,4.383c3.717,3.188,5.578,7.505,5.578,12.949
			c0,3.455-0.73,6.375-2.191,8.766c-1.463,2.26-3.52,4.053-6.176,5.379c3.453,1.463,6.107,3.52,7.969,6.175
			c1.725,2.524,2.59,5.845,2.59,9.96c0,6.643-2.125,11.822-6.375,15.539c-4.383,3.586-10.559,5.379-18.525,5.379H579.465z
			 M593.012,200.979h16.137c3.451,0,5.975-0.597,7.568-1.793c1.594-1.195,2.391-3.053,2.391-5.578c0-2.521-0.797-4.383-2.391-5.578
			c-1.328-1.061-3.918-1.594-7.768-1.594h-15.938V200.979z M593.012,230.662h16.734c3.715,0,6.572-0.729,8.564-2.191
			c1.859-1.326,2.789-3.586,2.789-6.773c0-3.187-0.93-5.509-2.789-6.973c-1.727-1.325-4.65-1.992-8.764-1.992h-16.535V230.662z"/>
		<path clip-path="url(#SVGID_4_)" fill="#56BDAC" d="M533.717,206.047l-5.031,7.511c-2.143,3.288-1.859,7.687,3.979,7.211
			c1.201-0.1,19.379,0,19.379,0c7.621,0.653,6.727-4.28,4.809-6.76l-5.184-7.889L533.717,206.047z"/>
		<g opacity="0.25" clip-path="url(#SVGID_4_)" enable-background="new    ">
			<g>
				<defs>
					<rect id="SVGID_5_" x="526.93" y="184.635" width="31.802" height="36.68"/>
				</defs>
				<clipPath id="SVGID_6_">
					<use xlink:href="#SVGID_5_"  overflow="visible"/>
				</clipPath>
				<path clip-path="url(#SVGID_6_)" fill="#56BDAC" d="M536.287,184.639c2.064,2.03,1.754,3.563,1.777,6.02l0.07,7.756
					l-10.066,15.078c-2.434,4.059-0.785,8.034,3.209,7.8l23.102,0.021c4.32-0.017,5.896-4.021,2.549-8.237l-9.547-14.626
					l-0.18-7.769c-0.023-2.454-0.361-3.981,1.666-6.048L536.287,184.639z"/>
			</g>
		</g>
		<path clip-path="url(#SVGID_4_)" fill="#FFFFFF" d="M536.309,184.639c2.072,2.03,1.762,3.563,1.781,6.02l0.072,7.756
			l-10.088,15.078c-2.443,4.059-0.791,8.034,3.213,7.8l23.158,0.021c4.328-0.017,5.91-4.021,2.555-8.237l-9.572-14.626l-0.178-7.769
			c-0.023-2.454-0.365-3.981,1.668-6.048L536.309,184.639z"/>
		<g opacity="0" clip-path="url(#SVGID_4_)">
			<g>
				<defs>
					<rect id="SVGID_7_" x="528.993" y="185.841" width="12.687" height="33.819"/>
				</defs>
				<clipPath id="SVGID_8_">
					<use xlink:href="#SVGID_7_"  overflow="visible"/>
				</clipPath>
				<path clip-path="url(#SVGID_8_)" fill="#DC2027" d="M532.064,219.641c-2.223,0.207-3.984-1.336-2.555-4.056l10.217-16.524
					l-0.076-10.966c0.008-0.753-0.088-1.504-0.676-2.254c1.285,0.607,2.451,1.252,2.555,2.254l0.15,11.566
					c0.033,2.597-4.002,7.968-5.777,11.107C533.486,215.042,530.289,218.21,532.064,219.641"/>
			</g>
		</g>
		<path clip-path="url(#SVGID_4_)" fill="#DC2027" d="M536.092,204.727l-6.502,10.783c0,0-0.703,1.317-0.371,2.277
			c0.334,0.961,0.549,1.571,3.535,1.571h21.406c0,0,1.963,0.059,2.338-1.491c0.369-1.552-0.217-2.298-1.396-4.146
			c-1.18-1.847-5.066-8.207-5.066-8.207s-1.629,0.921-3.182,0.904c-1.551-0.019-3.967,0.373-5.359-0.099
			C540.098,205.845,536.641,204.079,536.092,204.727"/>
		<path clip-path="url(#SVGID_4_)" fill="#DC2027" d="M541.84,207.512c0-1.267,1.074-2.295,2.4-2.295
			c1.322,0,2.396,1.028,2.396,2.295c0,1.272-1.074,2.301-2.396,2.301C542.914,209.813,541.84,208.784,541.84,207.512"/>
		<path clip-path="url(#SVGID_4_)" fill="#DC2027" d="M538.791,202.112c0-1.265,1.07-2.29,2.389-2.29
			c1.322,0,2.393,1.025,2.393,2.29c0,1.266-1.07,2.291-2.393,2.291C539.861,204.403,538.791,203.378,538.791,202.112"/>
		<path clip-path="url(#SVGID_4_)" fill="#DC2027" d="M541.84,197.187c0-0.913,0.775-1.657,1.732-1.657
			c0.956,0,1.73,0.744,1.73,1.657c0,0.919-0.774,1.66-1.73,1.66C542.615,198.847,541.84,198.106,541.84,197.187"/>
		<path clip-path="url(#SVGID_4_)" fill="#FFFFFF" d="M546.914,214.2c0-0.439,0.371-0.795,0.83-0.795
			c0.457,0,0.828,0.356,0.828,0.795c0,0.438-0.371,0.794-0.828,0.794C547.285,214.994,546.914,214.638,546.914,214.2"/>
		<path clip-path="url(#SVGID_4_)" fill="#FFFFFF" d="M538.791,214.994c0-0.619,0.523-1.118,1.168-1.118
			c0.644,0,1.168,0.499,1.168,1.118s-0.524,1.118-1.168,1.118C539.314,216.112,538.791,215.613,538.791,214.994"/>
		<path clip-path="url(#SVGID_4_)" fill="#FFFFFF" d="M547.453,210.882c0-0.592,0.502-1.069,1.121-1.069
			c0.615,0,1.119,0.477,1.119,1.069c0,0.59-0.504,1.072-1.119,1.072C547.955,211.955,547.453,211.472,547.453,210.882"/>
		<path clip-path="url(#SVGID_4_)" fill="#FFFFFF" d="M542.391,207.512c0-0.977,0.826-1.767,1.848-1.767
			c1.02,0,1.848,0.79,1.848,1.767c0,0.978-0.828,1.771-1.848,1.771C543.217,209.283,542.391,208.49,542.391,207.512"/>
	</g>
</g>
<rect id="_x3C_Slice_x3E__1_" x="82.667" y="172.519" fill="none" width="554.583" height="91.5"/>
</svg>
